<svg width="27" height="27" viewBox="0 0 27 27" fill="none" xmlns="http://www.w3.org/2000/svg">
<circle cx="13.5" cy="13.5" r="13.5" fill="white"/>
<circle cx="13.5" cy="13.4998" r="12.6692" fill="#006496"/>
<path d="M13.4956 27C6.03101 26.9765 -0.00293658 20.9586 1.0722e-06 13.4927C0.00293873 6.0297 6.03688 -0.00293595 13.5044 1.07197e-06C20.9749 0.00293809 27.0029 6.04145 27 13.5015C26.9971 20.9703 20.9572 26.9824 13.4956 27ZM13.5044 13.9655C9.25656 13.9655 5.00577 13.9655 0.757916 13.9655C0.564031 13.9655 0.555218 13.9714 0.575782 14.1623C0.628659 14.6528 0.666849 15.1462 0.743228 15.6308C1.01643 17.3519 1.61571 18.9584 2.57339 20.4123C5.0087 24.11 8.4487 26.1189 12.8699 26.4155C14.1595 26.5036 15.4374 26.3539 16.6918 26.0367C21.0189 24.9382 24.5001 21.6429 25.8455 17.3783C26.1775 16.3239 26.3625 15.2461 26.4272 14.1447C26.4389 13.9685 26.433 13.9655 26.2391 13.9655C21.9942 13.9655 17.7493 13.9655 13.5044 13.9655ZM16.1365 1.49788C16.1365 1.57131 16.1365 1.63298 16.1365 1.6976C16.1365 5.43642 16.1365 9.17818 16.1365 12.917C16.1365 12.9669 16.1248 13.0198 16.1395 13.0639C16.1512 13.0991 16.1953 13.1402 16.2276 13.1432C16.3627 13.1608 16.3275 13.055 16.3275 12.9846C16.3275 10.9727 16.3275 8.96084 16.3275 6.94898C16.3275 6.89318 16.3275 6.83738 16.3275 6.76983C16.3862 6.78157 16.4244 6.78451 16.4626 6.79332C17.2558 6.99891 18.049 7.21038 18.8421 7.41303C18.9743 7.44534 19.0184 7.49233 19.0154 7.63625C19.0096 9.41901 19.0125 11.1988 19.0096 12.9816C19.0096 13.1197 19.0507 13.1549 19.1829 13.152C19.6147 13.1432 20.0436 13.1461 20.4755 13.152C20.6077 13.1549 20.6547 13.1226 20.6488 12.9816C20.5959 12.0858 20.6194 11.193 20.7046 10.3001C20.7751 9.5365 20.8809 8.77581 21.1276 8.04449C21.2304 7.74198 21.3685 7.4424 21.5448 7.17807C21.7915 6.80213 22.1235 6.81094 22.3849 7.17807C22.5201 7.37191 22.6346 7.58925 22.7169 7.81247C23.1047 8.86098 23.2222 9.95943 23.2721 11.0637C23.3015 11.6923 23.278 12.3267 23.278 12.9552C23.278 13.152 23.2751 13.152 23.4777 13.152C23.9772 13.152 24.4766 13.152 24.976 13.152C25.4019 13.152 25.8279 13.1461 26.2538 13.1549C26.4095 13.1578 26.4565 13.1079 26.433 12.9611C26.4183 12.8583 26.4125 12.7555 26.4095 12.6527C26.3684 11.8509 26.2421 11.0608 26.0364 10.2825C25.2785 7.41303 23.7304 5.05754 21.3832 3.2454C19.2387 1.59186 16.8034 0.713696 14.1037 0.575656C13.1901 0.528664 12.2794 0.587404 11.3717 0.737192C9.9469 0.975091 8.59558 1.43033 7.33239 2.1264C4.61506 3.62722 2.66446 5.81823 1.48646 8.69063C0.922425 10.0652 0.634535 11.4984 0.566969 12.9816C0.561093 13.0932 0.578719 13.149 0.713851 13.149C1.98586 13.1461 3.2608 13.1461 4.5328 13.149C4.63268 13.149 4.67675 13.1226 4.69731 13.0169C4.84126 12.2855 4.99402 11.5542 5.14384 10.8229C5.56098 8.77581 5.98107 6.72871 6.39822 4.68454C6.44816 4.44077 6.50103 4.197 6.55097 3.95323C6.58035 3.83281 6.64498 3.41869 6.65967 3.25422C6.82124 3.46274 6.81536 3.46274 6.82124 3.67127C6.8418 4.34385 6.78599 5.01349 6.92993 5.68607C7.44696 8.12085 7.93755 10.5615 8.42814 13.0022C8.45457 13.1314 8.50745 13.1549 8.62202 13.1549C8.97454 13.149 9.32706 13.152 9.67958 13.152C9.88228 13.152 9.88521 13.152 9.88521 12.9522C9.88521 12.2415 9.88815 11.5337 9.88228 10.8229C9.88228 10.7113 9.91753 10.6614 10.0203 10.6203C11.1249 10.1826 12.2265 9.74209 13.3281 9.30153C13.3869 9.27804 13.4457 9.25748 13.522 9.22811C13.522 9.30153 13.522 9.3544 13.522 9.40727C13.522 10.2003 13.522 10.9933 13.522 11.7862C13.522 12.1916 13.525 12.5998 13.5191 13.0051C13.5162 13.1255 13.5661 13.1549 13.6777 13.149C13.8011 13.1432 13.7659 13.055 13.7659 12.9875C13.7659 9.28685 13.7659 5.58621 13.7659 1.88557C13.7659 1.83857 13.76 1.79158 13.76 1.75046C13.6601 1.75046 13.5778 1.75046 13.4838 1.75046C13.4838 1.82389 13.4838 1.88557 13.4838 1.94724C13.4838 3.451 13.4838 4.95181 13.4838 6.45556C13.4838 7.27793 13.4838 8.10029 13.4809 8.92266C13.4809 8.96965 13.4662 9.04601 13.4368 9.05776C13.2253 9.15468 13.0079 9.23692 12.7671 9.33384C12.7671 6.79038 12.7671 4.27336 12.7671 1.75046C12.6642 1.75046 12.582 1.75046 12.485 1.75046C12.485 1.82389 12.485 1.88557 12.485 1.95018C12.485 3.76526 12.485 5.58327 12.485 7.39835C12.485 8.03862 12.485 8.68182 12.4821 9.32209C12.4821 9.36908 12.4704 9.44545 12.438 9.46013C12.3147 9.52475 12.1825 9.5688 12.0415 9.62461C12.0415 6.90199 12.0415 4.20287 12.0415 1.49788C13.4104 1.49788 14.7617 1.49788 16.1365 1.49788ZM13.4868 13.7041C17.7229 13.7041 21.956 13.7041 26.1921 13.7041C26.245 13.7041 26.3008 13.7071 26.3537 13.7012C26.3802 13.6982 26.4125 13.6865 26.4272 13.6659C26.4977 13.5514 26.4213 13.4075 26.2891 13.4045C26.2509 13.4045 26.2098 13.4045 26.1716 13.4045C17.7258 13.4045 9.28006 13.4045 0.837233 13.4045C0.793168 13.4045 0.749103 13.4104 0.705039 13.4045C0.59047 13.3899 0.566969 13.4457 0.566969 13.5514C0.566969 13.6601 0.59047 13.7217 0.710914 13.7071C0.754979 13.7012 0.799044 13.7071 0.843108 13.7071C5.05571 13.7041 9.27124 13.7041 13.4868 13.7041ZM14.4033 1.74753C14.4033 1.81801 14.4033 1.87969 14.4033 1.94137C14.4033 5.60677 14.4033 9.27216 14.4033 12.9376C14.4033 12.9728 14.4063 13.0051 14.4033 13.0404C14.3975 13.1138 14.4268 13.1432 14.5032 13.149C14.6736 13.1578 14.6853 13.152 14.6853 12.9757C14.6853 9.28685 14.6853 5.59502 14.6853 1.90613C14.6853 1.85326 14.6853 1.80333 14.6853 1.74753C14.5825 1.74753 14.5003 1.74753 14.4033 1.74753ZM15.4021 1.74753C15.4021 1.81801 15.4021 1.87969 15.4021 1.94137C15.4021 5.60677 15.4021 9.27216 15.4021 12.9376C15.4021 12.9728 15.4051 13.0051 15.4021 13.0404C15.3963 13.1138 15.4256 13.1432 15.502 13.149C15.6724 13.1578 15.6841 13.152 15.6841 12.9757C15.6841 9.28685 15.6841 5.59502 15.6841 1.90613C15.6841 1.85326 15.6841 1.80333 15.6841 1.74753C15.5813 1.74753 15.4991 1.74753 15.4021 1.74753Z" fill="#F5F6FA"/>
<path d="M14.4738 19.9247C13.3663 20.935 11.9974 21.3668 10.6137 21.7662C9.98508 21.9483 9.34467 22.0922 8.68076 22.0599C7.5997 22.0071 6.65965 21.6517 6.01337 20.7324C5.58447 20.1244 5.44346 19.4342 5.50809 18.7C5.56685 18.0333 5.79011 17.4341 6.24251 16.9319C6.73897 16.3797 7.3735 16.0919 8.10204 16.0009C8.9569 15.8922 9.75888 16.0948 10.5491 16.4003C11.6595 16.832 12.7406 17.3225 13.7012 18.0362C13.992 18.2536 14.2506 18.5179 14.5443 18.7793C14.512 18.7822 14.5238 18.7852 14.5296 18.7793C15.2053 18.0715 16.066 17.6632 16.9503 17.2961C17.4379 17.0934 17.9314 16.9025 18.4602 16.835C19.4531 16.7087 20.3315 16.9113 20.9807 17.7366C21.2921 18.1331 21.4302 18.5972 21.4566 19.0994C21.4772 19.5135 21.4419 19.9218 21.2804 20.3065C20.9073 21.1964 20.214 21.6634 19.2769 21.7985C18.7187 21.8808 18.1782 21.7897 17.6435 21.6282C16.8739 21.3932 16.1307 21.0995 15.4374 20.6913C15.076 20.4827 14.7382 20.2419 14.4738 19.9247ZM8.82471 21.5107C9.04503 21.4931 9.26536 21.4931 9.4798 21.452C10.5638 21.2464 11.6125 20.9233 12.6143 20.4651C13.0608 20.2625 13.4956 20.0363 13.8628 19.7074C14.183 19.4195 14.2065 19.2698 13.898 18.9702C13.6101 18.6941 13.2958 18.4386 12.9639 18.2183C12.1208 17.6573 11.2013 17.252 10.2553 16.8966C9.69425 16.6852 9.12435 16.5266 8.51625 16.5383C7.75834 16.553 7.09149 16.7821 6.59503 17.3813C6.17788 17.8835 6.031 18.4768 6.05743 19.12C6.08681 19.8895 6.39527 20.5209 7.02392 20.9762C7.56151 21.3609 8.17255 21.5048 8.82471 21.5107ZM18.8421 21.2757C19.0037 21.2611 19.1653 21.2552 19.3239 21.2258C19.8674 21.123 20.3139 20.8646 20.6106 20.3858C20.8897 19.9335 20.9602 19.4342 20.875 18.9173C20.7927 18.4151 20.5665 17.9922 20.1347 17.7014C19.6059 17.346 19.0154 17.2814 18.4191 17.4165C17.3557 17.6573 16.3715 18.095 15.4726 18.7117C15.2611 18.8556 15.0878 19.0554 14.9057 19.2375C14.8146 19.3285 14.8175 19.4489 14.9086 19.5429C15.0467 19.6868 15.1847 19.8366 15.3434 19.9541C15.9485 20.3976 16.6301 20.6913 17.3351 20.935C17.8198 21.1083 18.3104 21.2757 18.8421 21.2757Z" fill="white"/>
</svg>
