<svg width="48" height="48" viewBox="0 0 48 48" fill="none" xmlns="http://www.w3.org/2000/svg">
<circle cx="24" cy="24" r="24" fill="#E5F8ED"/>
<path d="M11.7802 33.7852H10.6585C10.4839 33.7851 10.3166 33.7157 10.1932 33.5923C10.0697 33.4689 10.0003 33.3016 10 33.1271V23.469C10.0003 23.2945 10.0697 23.1271 10.1932 23.0037C10.3166 22.8803 10.4839 22.8108 10.6585 22.8105H11.7802C11.9548 22.8108 12.1221 22.8803 12.2456 23.0037C12.369 23.1271 12.4384 23.2945 12.4387 23.469V33.1271C12.4384 33.3016 12.3689 33.4689 12.2455 33.5923C12.122 33.7157 11.9548 33.7851 11.7802 33.7852V33.7852ZM10.6585 23.1431C10.5721 23.1433 10.4893 23.1777 10.4282 23.2388C10.3671 23.2998 10.3327 23.3826 10.3326 23.469V33.1271C10.3327 33.2134 10.3671 33.2962 10.4282 33.3572C10.4893 33.4183 10.5721 33.4526 10.6585 33.4527H11.7802C11.8666 33.4527 11.9495 33.4184 12.0106 33.3573C12.0717 33.2963 12.1061 33.2135 12.1061 33.1271V23.469C12.1061 23.3826 12.0717 23.2998 12.0106 23.2387C11.9495 23.1776 11.8666 23.1432 11.7802 23.1431H10.6585Z" fill="#28C76F"/>
<path d="M26.6159 25.987C26.6336 26.0514 26.6362 26.1189 26.6232 26.1844C26.6103 26.2499 26.5823 26.3114 26.5414 26.3642C26.421 26.5182 26.1922 26.6828 24.9973 26.6828C23.7608 26.6669 22.5273 26.5568 21.3075 26.3535C20.6712 26.2445 20.0274 26.1857 19.3819 26.1779L19.3682 28.298H33.336V19.7069H35.3866L26.4074 13L17.0403 19.8176H19.4235L19.4005 23.3611C20.2652 23.382 21.067 23.4193 21.7784 23.4772C26.0771 23.8257 26.4828 25.4523 26.6159 25.987Z" fill="#28C76F"/>
<path d="M18.0384 25.915C19.1463 25.786 20.2672 25.8233 21.3641 26.0257C23.3039 26.3583 26.4078 26.5246 26.297 26.0812C26.1863 25.6379 25.8537 24.1411 21.7519 23.8085C17.65 23.4759 12.2185 23.864 12.2185 23.864V32.8433C12.2185 32.8433 13.5488 31.4575 16.1538 32.2889C18.7588 33.1204 23.5258 35.5038 28.5143 33.7303C33.5028 31.9567 36.1633 31.1805 36.1633 31.1805C36.1633 31.1805 37.6598 30.5709 36.7173 29.3514C35.7748 28.1319 32.7265 28.7418 30.2323 29.2958C27.7381 29.8499 22.5281 30.9035 18.4262 28.1874L18.0384 25.915Z" fill="#28C76F"/>
</svg>
