<svg width="48" height="48" viewBox="0 0 48 48" fill="none" xmlns="http://www.w3.org/2000/svg">
<circle cx="24" cy="24" r="24" fill="#E0F9FD"/>
<g clip-path="url(#clip0_705_4403)">
<path d="M16.4586 21.1284H24.0136C24.0136 21.1284 24.6061 23.4958 22.0137 25.5517C19.4214 27.6077 15.7179 24.0565 16.4586 21.1284Z" fill="#0ED2E9"/>
<path d="M15.7178 20.5472H24.6059V20.0902H23.7666C23.7666 20.0902 24.0134 17.972 22.0876 16.9338L21.5937 19.0104H20.952L21.5446 16.3938C21.5446 16.3938 20.4581 15.8954 19.5198 16.02C18.9844 16.0797 18.4931 16.3011 18.1374 16.643L19.3225 19.0104L18.8781 18.9688L17.7917 16.9752C16.9683 17.7927 16.4831 18.813 16.409 19.8826H15.7672L15.7178 20.5472Z" fill="#0ED2E9"/>
<path d="M13.0019 31.9274H15.4711V29.2694L16.0636 28.8956V26.7773L13.9897 27.8571C13.9897 27.8571 12.9528 28.148 13.0019 29.5599C13.0511 30.9719 13.0019 32.052 13.0019 31.9274Z" fill="#0ED2E9"/>
<path d="M16.9028 26.4449V28.9369H23.5195V25.9881C23.4264 25.8673 23.2905 25.7741 23.1309 25.7219C22.9714 25.6697 22.7964 25.6611 22.6307 25.6973C22.6307 25.6973 21.5937 26.5695 20.5568 26.6111C18.5818 26.6527 17.9398 25.8219 17.9398 25.8219C17.7257 25.861 17.5233 25.9364 17.345 26.0435C17.1667 26.1507 17.0163 26.2872 16.9028 26.4449V26.4449Z" fill="#0ED2E9"/>
<path d="M24.3838 26.4863V28.8849H24.8652V31.9376H27.4576V28.916C27.4576 28.916 27.828 28.5111 26.2355 27.6389C24.643 26.7667 24.3838 26.4863 24.3838 26.4863Z" fill="#0ED2E9"/>
<path d="M32.0129 28.4491L30.0871 29.6329C30.0871 29.6329 29.4575 29.664 29.976 30.5362C30.2658 30.9972 30.4777 31.49 30.6056 32.0003C30.6056 32.0003 29.2724 31.7511 28.8279 29.8509C28.3835 27.9507 31.1611 27.3589 31.1611 27.3589H33.0128C33.0128 27.3589 34.7534 28.013 34.9756 29.5083C35.1978 31.0035 33.5313 31.938 33.5313 31.938L34.1979 29.9755L32.0129 28.4491Z" fill="#0ED2E9"/>
<path d="M30.6055 20.6928V27.1097H31.0869V26.8605H32.8645V27.172H33.5312V20.6616H32.8275V21.0666H31.6054L31.161 20.6928H30.6055Z" fill="#0ED2E9"/>
<path d="M31.2722 20.4745C31.2722 20.4745 29.5686 19.8515 29.1983 19.2285C28.8279 18.6055 28.1613 16.6742 30.4574 16.1135L29.6797 17.3595L30.3833 18.3875L32.0499 19.2908L34.1238 17.9825L33.5312 16.0512C33.5312 16.0512 34.6052 15.8955 34.9385 17.453C35.2718 19.0105 34.1978 19.9138 33.0868 20.4745H31.2722Z" fill="#0ED2E9"/>
</g>
<defs>
<clipPath id="clip0_705_4403">
<rect width="22" height="16" fill="white" transform="translate(13 16)"/>
</clipPath>
</defs>
</svg>
