<svg width="48" height="48" viewBox="0 0 48 48" fill="none" xmlns="http://www.w3.org/2000/svg">
<circle cx="24" cy="24" r="24" fill="#E0F3FF"/>
<g clipPath="url(#clip0_813_6317)">
<g clipPath="url(#clip1_813_6317)">
<path d="M17.9233 20.0804L18.6149 17.5676C18.6149 17.5676 21.6349 17.6368 22.3034 17.1065C22.972 16.5763 23.1794 15.6772 23.1794 15.6772L19.0068 15.7695C19.0068 15.7695 17.1626 16.2305 17.1626 16.7377C17.1626 17.2449 17.4623 19.2274 17.9233 20.0804Z" fill="#0098FB"/>
<path d="M18.2231 20.5185L19.0069 21.1871H22.2344C22.2344 21.1871 22.8107 20.6107 22.3496 19.85L22.3727 17.7061C22.3727 17.7061 20.5976 18.3515 19.0069 18.1902L18.2231 20.5185Z" fill="#0098FB"/>
<path d="M18.6149 22.2243C18.6149 22.2243 17.5314 22.4318 17.1625 22.5932C16.7937 22.7545 16.6554 24.5296 16.494 25.5209C16.3326 26.5122 15.9868 29.9471 15.9868 29.9471L17.1625 30.1085L17.2317 25.7745L17.8772 25.7975L17.8541 30.5234L18.223 30.6156L18.246 33.3128H19.9289L19.9058 31.5378H20.6896V33.359H22.0037L22.0959 30.6156H22.6722L22.5108 25.4056C22.5108 25.4056 22.6722 25.4979 23.0872 25.2443L25.8766 28.0337L28.7813 26.6505L27.813 25.4979L26.2454 26.2125L23.1794 22.6854C23.1794 22.6854 22.8105 22.5701 22.58 22.524C22.3495 22.501 22.1881 22.0399 21.8654 22.2474L21.7731 28.6331L21.1046 28.5639V24.7602L21.0124 24.5296C21.0124 24.5296 20.5052 25.6823 20.2516 25.7053C20.0211 25.7284 19.4448 24.6679 19.4448 24.6679L19.3756 28.5639H18.8223L18.6149 22.2243Z" fill="#0098FB"/>
<path d="M17.2549 30.6386L16.3327 30.5464L16.2866 31.7451L17.4393 31.8374L17.5315 31.1227L17.2549 31.0766V30.6386Z" fill="#0098FB"/>
<path d="M19.2603 23.7918L19.4216 21.8784H19.9057C19.8827 21.8784 19.5599 23.5613 19.2603 23.7918Z" fill="#0098FB"/>
<path d="M21.2429 23.5614C21.2429 23.5614 20.851 22.8698 20.6896 22.6624C20.5283 22.4549 20.6205 21.7402 20.6205 21.7402L21.266 21.8555V23.5614H21.2429Z" fill="#0098FB"/>
<path d="M20.3207 23.0083L20.7817 24.2532L20.3207 24.9678L19.6982 24.2762L20.3207 23.0083Z" fill="#0098FB"/>
<path d="M28.5044 25.406C28.5044 25.406 29.1499 24.3686 29.1729 24.0228C29.196 23.6539 29.5879 23.6309 29.5879 23.9306C29.5879 24.2303 29.3804 25.0832 29.8184 24.7374C30.2564 24.3916 30.7636 23.9536 30.7636 23.9536C30.7636 23.9536 31.1555 24.3455 31.2247 24.553C31.2938 24.7605 30.3256 25.5212 29.9798 25.7979C29.657 26.0745 29.196 26.305 29.196 26.305L28.5044 25.406Z" fill="#0098FB"/>
<path d="M31.8474 19.2738V21.9019H31.248V18.2134H26.1994V21.8788H25.623V22.4551H33V22.386V21.8558V19.804L31.8474 19.2738ZM27.352 19.5274C27.352 19.4582 27.3981 19.4121 27.4673 19.4121H30.0723C30.1414 19.4121 30.1876 19.4582 30.1876 19.5274V21.9019H29.4268V20.0807H28.1128V21.9019H27.3751V19.5274H27.352Z" fill="#0098FB"/>
<path d="M30.8331 17.4294V15.7235H30.3029V17.0144L28.6892 15.6543L26.3608 17.5908H31.0176L30.8331 17.4294Z" fill="#0098FB"/>
</g>
</g>
<defs>
<clipPath id="clip0_813_6317">
<rect width="20" height="17" fill="white" transform="translate(17 16)"/>
</clipPath>
<clipPath id="clip1_813_6317">
<rect width="17" height="17" fill="white" transform="translate(16 16)"/>
</clipPath>
</defs>
</svg>
