<svg width="48" height="48" viewBox="0 0 48 48" fill="none" xmlns="http://www.w3.org/2000/svg">
<circle cx="24" cy="24" r="24" fill="#FDEAEA"/>
<g clipPath="url(#clip0_705_4405)">
<path d="M20.8585 26.4639C22.3946 26.4639 23.6398 24.7774 23.6398 22.697C23.6398 20.6167 22.3946 18.9302 20.8585 18.9302C19.3224 18.9302 18.0771 20.6167 18.0771 22.697C18.0771 24.7774 19.3224 26.4639 20.8585 26.4639Z" fill="#EA5354"/>
<path d="M26.7762 29.4712V31.9998H15V29.2621C14.9997 29.1323 15.0318 29.0044 15.0936 28.8892C15.1554 28.774 15.2451 28.6748 15.3551 28.6L18.8465 26.2354H19.0832C19.5675 26.6665 20.1996 26.9103 20.8585 26.9202C21.4684 26.9129 22.0569 26.7024 22.5243 26.3244C22.5954 26.2677 22.6846 26.2363 22.7768 26.2354V26.2354C22.8637 26.2353 22.9482 26.2628 23.0173 26.3137L26.4456 28.8283C26.5483 28.9036 26.6316 29.0009 26.689 29.1124C26.7463 29.2239 26.7762 29.3467 26.7762 29.4712V29.4712Z" fill="#EA5354"/>
<path d="M30.7102 16.1905C29.7634 15.8184 29.2331 16.1061 29.2331 16.1061L26.511 17.2475V19.2725L28.3739 20.0419V22.6125H28.7597V22.8955L28.3739 22.9252L28.078 22.9823L27.7679 23.1398L27.3963 23.4959H26.7761V23.7242L27.1312 23.7813L27.6046 23.7539L28.1679 24.295H28.7881V24.8954H28.4047V25.1237H28.0496V25.3794H27.4271V25.9364H27.8271L27.9881 26.0917H28.7881V26.635H28.0496V27.0345H27.4863V27.4614H28.1679V27.5756H28.729L28.7597 27.918L29.0249 28.0915L29.29 28.3198L29.4698 28.2331V20.6126H30.0309V28.3472L29.6166 28.6622C29.645 29.233 29.9125 29.4019 29.9125 29.4019L30.947 28.7467V20.3569L33.2856 19.3867V17.3023C33.2856 17.3023 31.6571 16.5627 30.7102 16.1905ZM32.1612 18.5032H28.0496C27.9362 18.3777 27.8712 18.2182 27.8656 18.0518C27.86 17.8855 27.9141 17.7223 28.0188 17.59C28.1016 17.4405 28.2344 17.3224 28.3955 17.2549C28.5567 17.1873 28.7367 17.1743 28.9065 17.2179H31.5387C31.788 17.3211 31.9891 17.5091 32.1039 17.7461C32.2187 17.9831 32.2391 18.2526 32.1612 18.5032V18.5032Z" fill="#EA5354"/>
</g>
<defs>
<clipPath id="clip0_705_4405">
<rect width="18.2857" height="16" fill="white" transform="translate(15 16)"/>
</clipPath>
</defs>
</svg>
