<svg width="48" height="48" viewBox="0 0 48 48" fill="none" xmlns="http://www.w3.org/2000/svg">
<circle cx="24" cy="24" r="24" fill="#D5EBF6"/>
<g clip-path="url(#clip0_705_4401)">
<path d="M23.532 29.9247C23.571 30.204 23.7473 30.2163 23.9215 30.2182C25.0945 30.2618 26.2689 30.2431 27.4399 30.1624C28.1837 30.0884 28.8699 29.7226 29.3534 29.1426C30.3441 28.0256 31.2797 26.8627 32.1602 25.6538C32.2565 25.5067 32.3637 25.3673 32.4809 25.2369C32.6274 25.0691 32.8321 24.9655 33.052 24.948C33.2719 24.9304 33.49 25.0002 33.6604 25.1428C33.7494 25.2078 33.8248 25.2902 33.882 25.3853C33.9393 25.4804 33.9773 25.5861 33.9939 25.6963C34.0105 25.8065 34.0054 25.919 33.9787 26.0272C33.9521 26.1353 33.9045 26.237 33.8387 26.3262C33.4325 27.0053 33.004 27.6716 32.5659 28.33C31.8346 29.4294 31.0297 30.4723 30.2164 31.51C30.0542 31.7312 29.8502 31.9171 29.6164 32.0569C29.3825 32.1967 29.1236 32.2875 28.8548 32.324C27.0308 32.6199 25.191 32.8031 23.3452 32.8727C21.7052 32.8756 20.1075 33.4031 18.7779 34.3806C18.481 34.6294 18.1534 34.8377 17.8033 34.9999C17.301 34.674 16.09 32.1461 16 31.2701C16.0222 31.2327 16.0359 31.1785 16.0688 31.1609C17.1387 30.5888 18.0088 29.7555 18.8847 28.9301C19.41 28.3981 20.0449 27.9917 20.7435 27.7403C21.4421 27.4889 22.1868 27.3987 22.9239 27.4764C24.1804 27.5895 25.4438 27.5995 26.7019 27.5062C26.9192 27.4881 27.1378 27.5157 27.3441 27.5872C27.5651 27.6556 27.759 27.7937 27.8979 27.9816C28.0367 28.1695 28.1133 28.3975 28.1166 28.6326C28.1198 28.8678 28.0495 29.0978 27.9159 29.2896C27.7823 29.4814 27.5922 29.625 27.3732 29.6997C27.1255 29.7851 26.8646 29.8237 26.6032 29.8136C25.7775 29.8158 24.9516 29.8156 24.1259 29.8231C23.9366 29.825 23.7339 29.7533 23.532 29.9247Z" fill="#006496"/>
<path d="M32.5331 24.5165L25.3354 18.2298L18.3572 24.3172C17.9268 23.7274 17.966 23.3183 18.5182 22.8255C19.4331 22.0087 20.3638 21.2106 21.2866 20.4034C22.4236 19.4084 23.5573 18.4096 24.6979 17.4189C24.8919 17.2513 25.0603 17.0279 25.3459 17C25.5759 17.0704 25.7815 17.206 25.9386 17.3909C28.0305 19.2168 30.121 21.0446 32.2102 22.8743C32.8076 23.3968 32.8642 23.626 32.5331 24.5165Z" fill="#006496"/>
<path d="M19.1912 28.0178V24.1643C19.438 23.8367 19.8292 23.6058 20.2105 23.1836V27.4001L19.1912 28.0178Z" fill="#006496"/>
<path d="M30.3333 17.5283V20.7186L28.4679 19.0834C28.4261 18.5638 28.4367 18.0412 28.4995 17.5238C29.1098 17.4737 29.7232 17.4752 30.3333 17.5283Z" fill="#006496"/>
<path d="M25.5552 21.9805H27.4649V23.9301C26.8292 23.9759 26.1913 23.979 25.5552 23.9396V21.9805Z" fill="#006496"/>
<path d="M23.1997 21.9896C23.8289 21.943 24.46 21.9312 25.0905 21.9544C25.1372 22.6104 25.1463 23.2685 25.1179 23.9255C24.4798 23.9703 23.8397 23.9802 23.2005 23.9554L23.1997 21.9896Z" fill="#006496"/>
<path d="M23.1909 24.3066H25.0716C25.2008 24.9266 25.0847 25.5574 25.1412 26.2317H23.1909V24.3066Z" fill="#006496"/>
<path d="M25.5552 24.3115H27.4603V26.2495H25.5552V24.3115Z" fill="#006496"/>
<path d="M31.6448 24.2488V25.5612L30.6477 26.8806V23.4932C31.0559 23.6191 31.2734 24.024 31.6448 24.2488Z" fill="#006496"/>
</g>
<defs>
<clipPath id="clip0_705_4401">
<rect width="18" height="18" fill="white" transform="translate(16 17)"/>
</clipPath>
</defs>
</svg>
