<svg width="18" height="18" viewBox="0 0 18 18" fill="none" xmlns="http://www.w3.org/2000/svg">
<g clipPath="url(#clip0_748_28)">
<path d="M12.5004 11.0004H11.7104L11.4304 10.7304C12.527 9.4528 13.0859 7.80002 12.9899 6.11908C12.8938 4.43815 12.1502 2.8598 10.9153 1.71541C9.6803 0.571025 8.04999 -0.0503844 6.36661 -0.0183516C4.68324 0.0136812 3.07775 0.696665 1.8872 1.8872C0.696665 3.07775 0.0136812 4.68324 -0.0183516 6.36661C-0.0503844 8.04999 0.571025 9.6803 1.71541 10.9153C2.8598 12.1502 4.43815 12.8938 6.11908 12.9899C7.80002 13.0859 9.4528 12.527 10.7304 11.4304L11.0004 11.7104V12.5004L16.0004 17.4904L17.4904 16.0004L12.5004 11.0004ZM6.50041 11.0004C5.61039 11.0004 4.74037 10.7365 4.00034 10.242C3.26032 9.74756 2.68355 9.04475 2.34295 8.22249C2.00236 7.40022 1.91324 6.49542 2.08688 5.6225C2.26051 4.74959 2.68909 3.94777 3.31843 3.31843C3.94777 2.68909 4.74959 2.26051 5.6225 2.08688C6.49542 1.91324 7.40022 2.00236 8.22249 2.34295C9.04475 2.68355 9.74756 3.26032 10.242 4.00034C10.7365 4.74037 11.0004 5.61039 11.0004 6.50041C11.0012 7.09158 10.8853 7.6771 10.6595 8.22342C10.4336 8.76974 10.1022 9.26613 9.68415 9.68415C9.26613 10.1022 8.76974 10.4336 8.22342 10.6595C7.6771 10.8853 7.09158 11.0012 6.50041 11.0004Z" fill="#006496"/>
</g>
<defs>
<clipPath id="clip0_748_28">
<rect width="17.49" height="17.49" fill="white"/>
</clipPath>
</defs>
</svg>
