<svg width="48" height="48" viewBox="0 0 48 48" fill="none" xmlns="http://www.w3.org/2000/svg">
<circle cx="24" cy="24" r="24" fill="#EEECFE"/>
<g clipPath="url(#clip0_705_4402)">
<path d="M23.668 29.3562C22.8519 29.3562 22.1912 28.4756 22.1912 27.3915C22.1912 26.3074 22.8519 25.4269 23.668 25.4269C24.484 25.4269 25.1425 26.3074 25.1425 27.3915C25.1425 28.4756 24.4819 29.3562 23.668 29.3562ZM23.8707 16L14 23.1301H16.5108L16.4525 32H20.3667V31.1409C20.3667 31.1409 20.1875 30.9266 20.9065 30.4617C21.5822 30.0268 22.3227 29.4954 22.4091 29.4333C22.4115 29.4313 22.4145 29.4301 22.4177 29.4301C22.4209 29.4301 22.424 29.4313 22.4264 29.4333C22.5062 29.489 23.1388 29.9218 23.6764 29.8554C24.0706 29.7896 24.4474 29.6453 24.7839 29.4312C24.7867 29.4299 24.7898 29.4295 24.7929 29.4299C24.7959 29.4302 24.7988 29.4314 24.8012 29.4333L26.9795 30.8859C26.9839 30.8902 26.9882 30.8945 26.9882 30.8988V32H31.1722V23.0145H33.3333L23.8707 16Z" fill="#7367F0"/>
</g>
<defs>
<clipPath id="clip0_705_4402">
<rect width="19.3333" height="16" fill="white" transform="translate(14 16)"/>
</clipPath>
</defs>
</svg>
